<svg xmlns="http://www.w3.org/2000/svg" viewBox="0 0 570.17 658.58"><defs><style>.cls-1{fill:#ff969c;}.cls-2{fill:#00c1c6;}.cls-3{fill:#f9ca6b;}.cls-4{fill:#1b3e70;}</style></defs><g id="Layer_2" data-name="Layer 2"><g id="Layer_1-2" data-name="Layer 1"><path class="cls-1" d="M235.72,449.64a24.4,24.4,0,0,1-17.67-7.54,122.58,122.58,0,1,1,211.16-88.43,24.47,24.47,0,1,1-48.92,1.46A73.66,73.66,0,1,0,253.4,408.25a24.47,24.47,0,0,1-17.68,41.39Z"/><path class="cls-2" d="M385.58,141.73a37.41,37.41,0,0,0-37.1,21.81,8.57,8.57,0,0,1-6.08,4.91,143,143,0,0,1-28.87,2.92A143.25,143.25,0,0,1,175.41,66.13a8.61,8.61,0,0,1,1.3-7.23,37.42,37.42,0,1,0-53.27,8.3,8.13,8.13,0,0,1,3,4.69A192.19,192.19,0,0,0,313.53,220.31a191.51,191.51,0,0,0,50.28-6.67,8.22,8.22,0,0,1,5.14.24,36.91,36.91,0,0,0,13.58,2.59,37.43,37.43,0,0,0,3.05-74.74Z"/><circle class="cls-3" cx="283.21" cy="92.53" r="41.27"/><path class="cls-4" d="M3.17,480.91a2.39,2.39,0,0,1,.56-1.58,2.08,2.08,0,0,1,1.69-.67H22.13a3.49,3.49,0,0,1,1.48.36,3.29,3.29,0,0,1,1.33,1.23q6.48,10.47,12.87,20.64t12.93,20.65V480.6a2.52,2.52,0,0,1,.82-1.43,2.18,2.18,0,0,1,1.43-.51H67.55a2.72,2.72,0,0,1,1.79.59,2,2,0,0,1,.72,1.66v71.64a1.83,1.83,0,0,1-.61,1.51,2.7,2.7,0,0,1-1.69.49H51.46a1.73,1.73,0,0,1-1.18-.46,8.13,8.13,0,0,1-1.07-1.23L35.77,530.63q-6.65-11-13.49-22.23v43.9a2.41,2.41,0,0,1-.51,1.68,2.4,2.4,0,0,1-1.84.57H5.42a2.15,2.15,0,0,1-1.72-.64,2.4,2.4,0,0,1-.53-1.56Z"/><path class="cls-4" d="M104.5,480.91a2.39,2.39,0,0,1,.56-1.58,2.08,2.08,0,0,1,1.69-.67h16.71a3.49,3.49,0,0,1,1.48.36,3.29,3.29,0,0,1,1.33,1.23q6.48,10.47,12.87,20.64t12.93,20.65V480.6a2.52,2.52,0,0,1,.82-1.43,2.18,2.18,0,0,1,1.43-.51h14.57a2.71,2.71,0,0,1,1.78.59,2,2,0,0,1,.72,1.66v71.64a1.83,1.83,0,0,1-.61,1.51,2.7,2.7,0,0,1-1.69.49h-16.3a1.75,1.75,0,0,1-1.18-.46,8.13,8.13,0,0,1-1.07-1.23L137.1,530.63q-6.65-11-13.49-22.23v43.9a2,2,0,0,1-2.35,2.25H106.75a2.11,2.11,0,0,1-1.71-.64,2.35,2.35,0,0,1-.54-1.56Z"/><path class="cls-4" d="M271.34,516.68A37.73,37.73,0,0,1,270,527a36.87,36.87,0,0,1-3.93,9.09,38,38,0,0,1-14,13.47,39.74,39.74,0,0,1-9.33,3.7,40.88,40.88,0,0,1-10.37,1.31H207.16a3.3,3.3,0,0,1-1.64-.41,1.86,1.86,0,0,1-.71-1.74V481a2.47,2.47,0,0,1,.59-1.73,2.19,2.19,0,0,1,1.76-.67h25.19a39.38,39.38,0,0,1,27.54,11,36.37,36.37,0,0,1,6.11,7.66,38.07,38.07,0,0,1,3.93,9.15A37,37,0,0,1,271.34,516.68ZM224.58,497v39.29h4.3c.78,0,1.55,0,2.3-.07l2.24-.18a20.7,20.7,0,0,0,7.16-1.87,20,20,0,0,0,5.8-4.09,18.4,18.4,0,0,0,3.88-5.95,20.31,20.31,0,0,0-.2-15.36,19.43,19.43,0,0,0-10.84-10.32,21.39,21.39,0,0,0-7.89-1.45Z"/><path class="cls-4" d="M318.86,481a2.53,2.53,0,0,1,.56-1.71,2.16,2.16,0,0,1,1.69-.64h32.65a22.51,22.51,0,0,1,6.65,1,22.92,22.92,0,0,1,5.72,2.69,23.36,23.36,0,0,1,4.7,4.08,26.31,26.31,0,0,1,5.78,10.94,25.24,25.24,0,0,1-.9,15.15,24.78,24.78,0,0,1-4.72,7.82,24.15,24.15,0,0,1-7.36,5.54,21.51,21.51,0,0,1-9.51,2.17H338.64v24.33c0,1.46-.79,2.2-2.35,2.2H321.11a2.36,2.36,0,0,1-1.63-.54,2.09,2.09,0,0,1-.62-1.66Zm38.48,22.38a9.14,9.14,0,0,0-.54-3.06,8.2,8.2,0,0,0-4-4.7,7,7,0,0,0-3.3-.77H338.64v17.07h10.83a7.36,7.36,0,0,0,3.32-.74,7.68,7.68,0,0,0,2.48-1.92,8.21,8.21,0,0,0,1.53-2.71A9.43,9.43,0,0,0,357.34,503.39Z"/><path class="cls-4" d="M406.14,481a2.53,2.53,0,0,1,.56-1.71,2.16,2.16,0,0,1,1.69-.64h33a24.8,24.8,0,0,1,9.86,2,25.75,25.75,0,0,1,8,5.34,25.15,25.15,0,0,1,5.39,7.89,24,24,0,0,1,2,9.64,22.81,22.81,0,0,1-.94,6.61,24.73,24.73,0,0,1-2.63,5.88,25.25,25.25,0,0,1-4,5,26,26,0,0,1-5.08,3.8l13.13,24.74c.24.47.55,1,.92,1.68a3.45,3.45,0,0,1,.56,1.69,1.51,1.51,0,0,1-.53,1.25,2.25,2.25,0,0,1-1.46.44H449.07a2.51,2.51,0,0,1-1.56-.52,2.34,2.34,0,0,1-.9-1.38L434.19,529.3h-8.27v23.05c0,1.46-.79,2.2-2.35,2.2H408.39a2.4,2.4,0,0,1-1.64-.54,2.12,2.12,0,0,1-.61-1.66Zm40,22.69a8.93,8.93,0,0,0-.56-3.06,10.17,10.17,0,0,0-1.58-2.82,9.37,9.37,0,0,0-2.46-2.14,8.54,8.54,0,0,0-3.16-1.13l-2.69-.17c-.83-.06-1.74-.08-2.73-.08h-7.05v18.75h9.4c.61,0,1.16,0,1.64,0s1-.08,1.58-.15a8.21,8.21,0,0,0,3.22-1.05,8.5,8.5,0,0,0,2.4-2.09,9.33,9.33,0,0,0,1.48-2.81A10.25,10.25,0,0,0,446.15,503.7Z"/><path class="cls-4" d="M492,516.68a38.78,38.78,0,0,1,5.32-19.75,39.67,39.67,0,0,1,6.11-7.95,37.73,37.73,0,0,1,7.9-6.1,39.82,39.82,0,0,1,9.33-3.94,39.25,39.25,0,0,1,20.78,0,40,40,0,0,1,9.36,3.94,38.66,38.66,0,0,1,14,14.05,40.48,40.48,0,0,1,3.93,9.35,39.06,39.06,0,0,1,0,20.8,39.57,39.57,0,0,1-3.93,9.3,38.74,38.74,0,0,1-6.11,7.87,40.21,40.21,0,0,1-7.93,6.11,39,39,0,0,1-47.37-6.11,39.46,39.46,0,0,1-6.11-7.87,38,38,0,0,1-3.94-9.3A38.79,38.79,0,0,1,492,516.68Zm19.77,0a21.72,21.72,0,0,0,1.43,7.92,19.49,19.49,0,0,0,4,6.41,18.6,18.6,0,0,0,6.1,4.3,18.89,18.89,0,0,0,7.75,1.55,19.15,19.15,0,0,0,7.79-1.55A18.57,18.57,0,0,0,545,531a19.66,19.66,0,0,0,4-6.41,22.74,22.74,0,0,0,0-15.82,19.88,19.88,0,0,0-4-6.46,19.05,19.05,0,0,0-27.76,0,19.72,19.72,0,0,0-4,6.46A21.84,21.84,0,0,0,511.76,516.63Z"/><path class="cls-4" d="M60.86,587.09a3.27,3.27,0,0,1,1.28,1.33,2.1,2.1,0,0,1-.16,1.94l-8.63,12.27a2,2,0,0,1-1.2,1,2.24,2.24,0,0,1-1.56-.43,19.62,19.62,0,0,0-11.91-3.94,18.55,18.55,0,0,0-13.79,5.93,20,20,0,0,0-4,6.44,21.61,21.61,0,0,0-1.43,7.87,21.37,21.37,0,0,0,1.43,7.84,19.62,19.62,0,0,0,4,6.39,18.57,18.57,0,0,0,13.79,5.9,19.72,19.72,0,0,0,6.44-1,19.5,19.5,0,0,0,5.57-2.93,2.3,2.3,0,0,1,1.53-.46,2.08,2.08,0,0,1,1.23.92l8.74,12.57a2,2,0,0,1,.15,1.89,3.25,3.25,0,0,1-1.28,1.27,40.64,40.64,0,0,1-10.34,5,39.08,39.08,0,0,1-31.4-3.55,39.64,39.64,0,0,1-14-14A38.35,38.35,0,0,1,1.38,630a39.88,39.88,0,0,1,0-20.8,39.22,39.22,0,0,1,3.93-9.35,40,40,0,0,1,6.11-8,38.33,38.33,0,0,1,7.9-6.1,39.92,39.92,0,0,1,9.32-3.94,39.71,39.71,0,0,1,22,.31A40,40,0,0,1,60.86,587.09Z"/><path class="cls-4" d="M79.26,583.82a2.56,2.56,0,0,1,.63-1.56,2,2,0,0,1,1.56-.69H96.63a2.62,2.62,0,0,1,1.58.64,2,2,0,0,1,.82,1.62v24.26h25.4V583.83a2.19,2.19,0,0,1,.64-1.59,2.15,2.15,0,0,1,1.65-.67h14.94a3.15,3.15,0,0,1,1.78.51,1.84,1.84,0,0,1,.76,1.64v71.49a2.07,2.07,0,0,1-.66,1.68,2.56,2.56,0,0,1-1.73.57H126.72a2.36,2.36,0,0,1-1.65-.57,2.09,2.09,0,0,1-.64-1.68v-29H99v29a2.07,2.07,0,0,1-.69,1.66,2.78,2.78,0,0,1-1.86.59h-15c-1.43,0-2.16-.67-2.19-2Z"/><path class="cls-4" d="M165.2,583.82a2.34,2.34,0,0,1,.57-1.58,2,2,0,0,1,1.68-.67h15a2.87,2.87,0,0,1,1.63.62,1.9,1.9,0,0,1,.87,1.63v71.39c0,1.5-.83,2.25-2.5,2.25h-15a2,2,0,0,1-2.25-2.25Z"/><path class="cls-4" d="M203.74,583.77a2.24,2.24,0,0,1,.61-1.58,2.16,2.16,0,0,1,1.68-.67h15.13a2.35,2.35,0,0,1,1.58.62,2.16,2.16,0,0,1,.77,1.63v55.6h28.11a2.24,2.24,0,0,1,1.58.61,2.19,2.19,0,0,1,.66,1.69v13.44a2.43,2.43,0,0,1-.58,1.58,2.2,2.2,0,0,1-1.66.77H206a2,2,0,0,1-2.24-2.25Z"/><path class="cls-4" d="M335.57,619.59a37.73,37.73,0,0,1-1.38,10.3,36.87,36.87,0,0,1-3.93,9.09,37.85,37.85,0,0,1-6.11,7.64,37.43,37.43,0,0,1-7.87,5.83,39.67,39.67,0,0,1-9.32,3.7,41,41,0,0,1-10.38,1.31H271.39a3.23,3.23,0,0,1-1.63-.41,1.84,1.84,0,0,1-.72-1.74V583.92a2.52,2.52,0,0,1,.59-1.73,2.21,2.21,0,0,1,1.76-.67h25.19a40.23,40.23,0,0,1,10.35,1.33,39.62,39.62,0,0,1,9.3,3.78,40.26,40.26,0,0,1,7.9,5.88,36.32,36.32,0,0,1,6.1,7.66,38.5,38.5,0,0,1,3.94,9.15A37.35,37.35,0,0,1,335.57,619.59Zm-46.75-19.72v39.29h4.29c.78,0,1.55,0,2.3-.07l2.25-.18a20.64,20.64,0,0,0,7.15-1.87,19.82,19.82,0,0,0,5.8-4.09,18.24,18.24,0,0,0,3.88-6,19.4,19.4,0,0,0,1.41-7.46,19.16,19.16,0,0,0-1.61-7.89,19.46,19.46,0,0,0-4.37-6.24,19.75,19.75,0,0,0-6.46-4.09,21.44,21.44,0,0,0-7.9-1.45Z"/><path class="cls-4" d="M353.1,583.92a2.53,2.53,0,0,1,.56-1.71,2.16,2.16,0,0,1,1.69-.64h33a24.84,24.84,0,0,1,9.86,2,25.59,25.59,0,0,1,8,5.34,24.75,24.75,0,0,1,5.39,7.9,23.87,23.87,0,0,1,2,9.63,22.93,22.93,0,0,1-.94,6.62A24.47,24.47,0,0,1,410,618.9a24.84,24.84,0,0,1-4,5,26.45,26.45,0,0,1-5.08,3.81l13.13,24.73c.24.47.55,1,.92,1.68a3.45,3.45,0,0,1,.56,1.69A1.53,1.53,0,0,1,415,657a2.27,2.27,0,0,1-1.46.44H396a2.51,2.51,0,0,1-1.56-.52,2.3,2.3,0,0,1-.89-1.37l-12.42-23.36h-8.28v23c0,1.46-.78,2.2-2.35,2.2H355.35a2.4,2.4,0,0,1-1.64-.54,2.09,2.09,0,0,1-.61-1.66Zm40,22.69a8.93,8.93,0,0,0-.56-3.06,9.76,9.76,0,0,0-1.59-2.81,9.19,9.19,0,0,0-2.45-2.15,8.52,8.52,0,0,0-3.17-1.13l-2.68-.17c-.84,0-1.75-.08-2.73-.08h-7.06V616h9.41c.61,0,1.15,0,1.63-.05s1-.08,1.59-.15a8.21,8.21,0,0,0,3.22-1,8.5,8.5,0,0,0,2.4-2.09,9.56,9.56,0,0,0,1.48-2.81A10.25,10.25,0,0,0,393.11,606.61Z"/><path class="cls-4" d="M429,583.92a2.45,2.45,0,0,1,.59-1.71,2.15,2.15,0,0,1,1.66-.64h50.69a2.23,2.23,0,0,1,1.74.67,2.5,2.5,0,0,1,.61,1.78v12.63a2.66,2.66,0,0,1-.61,1.66,2.13,2.13,0,0,1-1.79.79H448.76v12.67h25.55a2.76,2.76,0,0,1,1.61.46,1.79,1.79,0,0,1,.64,1.54v11a2.09,2.09,0,0,1-.57,1.38,2,2,0,0,1-1.63.67h-25.6v13.08H483.1a2.05,2.05,0,0,1,2.3,2.34v12.84a1.28,1.28,0,0,1-.41.92c-.14,1-.84,1.43-2.1,1.43H431.23a2.38,2.38,0,0,1-1.64-.54,2.12,2.12,0,0,1-.61-1.66Z"/><path class="cls-4" d="M502.26,583.82a2.39,2.39,0,0,1,.56-1.58,2.08,2.08,0,0,1,1.69-.67h16.71a3.49,3.49,0,0,1,1.48.36,3.29,3.29,0,0,1,1.33,1.23q6.48,10.47,12.88,20.64t12.92,20.65V583.52a2.55,2.55,0,0,1,.82-1.44,2.18,2.18,0,0,1,1.43-.51h14.57a2.71,2.71,0,0,1,1.78.59,2,2,0,0,1,.72,1.66v71.64a1.79,1.79,0,0,1-.61,1.51,2.62,2.62,0,0,1-1.69.49h-16.3a1.75,1.75,0,0,1-1.18-.46,8.73,8.73,0,0,1-1.07-1.23l-13.44-22.23q-6.65-11-13.49-22.23v43.9a2,2,0,0,1-2.35,2.25H504.51a2.11,2.11,0,0,1-1.71-.64,2.35,2.35,0,0,1-.54-1.56Z"/></g></g></svg>