<svg xmlns="http://www.w3.org/2000/svg" viewBox="0 0 806.31 633.72"><defs><style>.cls-1{fill:#00c6a9;}.cls-2{fill:#fff;}</style></defs><g id="Layer_2" data-name="Layer 2"><g id="Layer_1-2" data-name="Layer 1"><path class="cls-1" d="M506,422.84c-1.13-.36-11.11-3.76-15.47-13.78-3.26-7.48-2.43-16.41,2.47-26.57l1.46-3,2.92,1.69c9.77,5.64,15.49,12.55,17,20.54,2.14,11.26-4.95,20.05-5,20.13L508,423.48Z"/><path class="cls-1" d="M508.32,421l-.77,1-1.17-.38c-.42-.13-10.43-3.33-14.66-13-3.09-7.09-2.27-15.67,2.45-25.46l.84-1.76,1.69,1c9.41,5.44,14.93,12.05,16.37,19.65C515.06,412.35,508.6,420.64,508.32,421Z"/><path class="cls-1" d="M296.94,421.79c-.06-.07-7.15-8.89-5-20.11,1.53-8,7.26-14.91,17-20.54l2.92-1.67,1.46,3c4.89,10.17,5.72,19.11,2.47,26.57-4.61,10.56-15.41,13.75-15.51,13.79l-2,.63Z"/><path class="cls-1" d="M314.59,408.53c-4.24,9.71-14.25,12.92-14.67,13l-1.18.38-.77-1c-.27-.33-6.73-8.62-4.75-19,1.46-7.6,7-14.21,16.39-19.65l1.69-1,.84,1.75C316.85,392.86,317.68,401.44,314.59,408.53Z"/><path class="cls-1" d="M572.07,256.13h-2.38c-24.94,0-47.19-15.38-56.71-39.26C492.67,166,453.69,138,403.16,138s-89.55,28-109.81,78.84a56.45,56.45,0,0,1-3.17,6.66.64.64,0,0,0-.16.28,36.23,36.23,0,0,1-2.74,4.6c-.16.24-.24.44-.32.56a.55.55,0,0,1-.12.16,60.52,60.52,0,0,1-50.2,27h-2.38a15.87,15.87,0,1,0,0,31.73h2.38c38,0,71.78-23.24,86.14-59.21,11.77-29.47,30.06-48,54.53-55.32a89.88,89.88,0,0,1,25.85-3.57c37.72,0,64.77,19.83,80.35,58.89.52,1.31,1.07,2.58,1.63,3.85,15.19,33.79,48,55.36,84.55,55.36h2.38a15.87,15.87,0,1,0,0-31.73Z"/><path class="cls-1" d="M456.29,68.41a7.7,7.7,0,0,0,.7-2.79l0-.48v0c0-.05,0-.09,0-.13q0-.33,0-.66a.59.59,0,0,1,0-.13c0-.22-.06-.44-.1-.65l0-.12c-.05-.22-.1-.44-.16-.65l0-.07A7.9,7.9,0,0,0,442.2,61.2a3.3,3.3,0,0,0-.18.32l-.19.35a47.79,47.79,0,0,0,4.79,43.5c14.31,22,46.2,36.06,95.07,42l27.66,42.7a7.93,7.93,0,1,0,13.32-8.62l-20.83-32.15q18.84,1.36,40.46,1.37a7.93,7.93,0,1,0,0-15.86c-53.34,0-87.59-6.25-109.52-14.75l51.73-23a7.93,7.93,0,0,0-1.84-15.18l-.12,0a9,9,0,0,0-1-.07h0a7.62,7.62,0,0,0-2.16.31l-.19,0a5.44,5.44,0,0,0-.52.19l-.23.09-.12,0L474.5,110.85A50.23,50.23,0,0,1,460.1,97,31.94,31.94,0,0,1,456.29,68.41Z"/><path class="cls-1" d="M455.06,401.92c-14.63,0-26.39-8.14-34.95-24.21A95.35,95.35,0,0,1,411,351.09s0-.1,0-.15a6.91,6.91,0,0,0-.27-1.11l-.06-.21a7.54,7.54,0,0,0-.51-1.12l-.09-.17a7.41,7.41,0,0,0-.72-1,.27.27,0,0,0-.07-.08,7.77,7.77,0,0,0-4.49-2.67l-.27-.06-.12,0a6.12,6.12,0,0,0-1-.08l-.22,0a8.31,8.31,0,0,0-1.21.09,7.89,7.89,0,0,0-4.91,2.8l0,0a7.61,7.61,0,0,0-.75,1.1l0,.06a7.89,7.89,0,0,0-.93,2.73,94.3,94.3,0,0,1-9.07,26.47c-6.47,12.13-17.09,23.86-34.1,24.26a6.54,6.54,0,0,0-.89-.06,7.93,7.93,0,0,0-7.93,7.93,8.14,8.14,0,0,0,.05.87,7.94,7.94,0,0,0,7.89,7.14c25.1,0,41.05-16.94,50.21-35,.59-1.17,1.15-2.35,1.69-3.53C412,398.55,428.3,417.76,455,417.79h.05a7.93,7.93,0,0,0,7.93-7.93h0A7.93,7.93,0,0,0,455.06,401.92Z"/><path class="cls-1" d="M351.25,15.87c14.63,0,26.39,8.14,35,24.21a95.13,95.13,0,0,1,9.11,26.61c0,.06,0,.1,0,.16a8.17,8.17,0,0,0,.27,1.11c0,.07,0,.14.07.21a8,8,0,0,0,.5,1.12l.09.17a8,8,0,0,0,.72,1l.07.08a8.35,8.35,0,0,0,.93,1h0a7.75,7.75,0,0,0,3.56,1.72l.28.06.11,0a6.14,6.14,0,0,0,1,.08l.22,0a8.18,8.18,0,0,0,1.2-.09,7.94,7.94,0,0,0,4.92-2.8l0,0a7.67,7.67,0,0,0,.76-1.1l0-.06a8.09,8.09,0,0,0,.92-2.73,94.35,94.35,0,0,1,9.07-26.47c6.59-12.34,17.45-24.28,35-24.28a7.93,7.93,0,1,0,0-15.86C430,0,414,16.93,404.85,35c-.59,1.17-1.15,2.35-1.69,3.53C394.33,19.22,378,0,351.25,0a7.94,7.94,0,0,0,0,15.87Z"/><path class="cls-1" d="M602.3,211.39H560a7.94,7.94,0,0,0,0,15.87h42.3a7.94,7.94,0,0,0,0-15.87Z"/><path class="cls-1" d="M650.69,232c-7.31,0-14.76-3.47-22.15-10.33l-2.46-2.29,2.46-2.29c7.4-6.87,14.85-10.35,22.15-10.35,12.65,0,19.94,10.42,20.25,10.87l1.21,1.77-1.21,1.77C670.64,221.54,663.35,232,650.69,232Z"/><path class="cls-1" d="M670.55,219.33l-.7,1c-.29.42-7.18,10.28-19.16,10.28-7,0-14.11-3.36-21.25-10L628,219.33l1.42-1.32c7.14-6.63,14.3-10,21.25-10,12,0,18.87,9.88,19.16,10.3Z"/><path class="cls-1" d="M566.44,80.56c1-27,18.7-29.92,26.26-29.92a24.56,24.56,0,0,1,4.11.31l2.08.39.4,2.11c.09.44,2.1,11.28-5,20.13-5.07,6.36-13.36,9.79-24.63,10.21l-3.37.13Z"/><path class="cls-1" d="M593.29,72.76c-4.82,6-12.78,9.3-23.65,9.71l-1.95.08.07-1.94C568.74,54.75,585.52,52,592.7,52a23.11,23.11,0,0,1,3.85.29l1.21.23.23,1.21C598.07,54.12,599.91,64.46,593.29,72.76Z"/><path class="cls-1" d="M514.68,66.12c-10-5.16-16.08-11.79-18-19.69-2.55-10.55,3.34-19.36,4-20.33L502,24.36l2.07.52c1.19.32,11.35,3.37,16.14,13,3.6,7.29,3.19,16.26-1.21,26.65l-1.32,3.09Z"/><path class="cls-1" d="M517.76,64.05,517,65.83l-1.71-.89c-9.68-5-15.5-11.31-17.31-18.82-2.48-10.32,3.58-18.9,3.83-19.26l.72-1,1.2.3c.43.12,10.57,2.84,15.27,12.35C522.43,45.44,522,54,517.76,64.05Z"/><path class="cls-1" d="M204,150.7q21.65,0,40.45-1.37l-20.82,32.15A7.93,7.93,0,1,0,237,190.1l27.65-42.7c48.87-6,80.77-20,95.08-42a47.77,47.77,0,0,0,4.78-43.5c-.05-.12-.12-.22-.18-.34l-.18-.34a7.75,7.75,0,0,0-1.27-1.67l0,0a8.17,8.17,0,0,0-1.71-1.29l-.23-.12q-.27-.15-.54-.27c-.25-.1-.5-.2-.76-.28l-.39-.1-.6-.13-.37-.05a8.66,8.66,0,0,0-.89-.07h-.11a7.93,7.93,0,0,0-7.93,7.93A7.83,7.83,0,0,0,350,68.4,31.9,31.9,0,0,1,346.21,97a50.29,50.29,0,0,1-14.41,13.86L268.05,82.53h0a6.43,6.43,0,0,0-.77-.29h0a7.67,7.67,0,0,0-1.61-.34h0c-.16,0-.33,0-.49,0h-.33a8.76,8.76,0,0,0-1,.07l-.2,0a7.43,7.43,0,0,0-1,.21h0a7.35,7.35,0,0,0-1,.38l-.07,0a6.78,6.78,0,0,0-.88.48l-.1.06a8.53,8.53,0,0,0-.83.62l-.11.1a8.36,8.36,0,0,0-.67.66l-.11.12a9.13,9.13,0,0,0-.64.86l-.05.09a7.86,7.86,0,0,0-.53,1h0a8.35,8.35,0,0,0-.49,1.46.19.19,0,0,1,0,.08l-.09.54c0,.09,0,.18,0,.26s0,.26,0,.39,0,.28,0,.42,0,0,0,.07a2.64,2.64,0,0,0,0,.28c0,.15,0,.29,0,.43s0,.28.05.41,0,.24,0,.35.07.3.11.46a2.86,2.86,0,0,0,.07.28l.15.46c0,.09.07.18.1.27s.12.28.19.42l.14.29.19.35c.07.11.13.22.21.33s.12.18.18.27.18.25.28.37.11.13.17.2a4.14,4.14,0,0,0,.35.38,1.21,1.21,0,0,0,.16.16c.13.12.26.25.4.36l.18.15.42.31.24.16.41.25.32.16.31.15,51.92,23.06c-21.93,8.5-56.18,14.75-109.52,14.75a7.93,7.93,0,1,0,0,15.86Z"/><path class="cls-1" d="M204,227.26H246.3a7.94,7.94,0,0,0,0-15.87H204a7.94,7.94,0,0,0,0,15.87Z"/><path class="cls-1" d="M155.61,232c-12.68,0-19.94-10.42-20.24-10.86l-1.21-1.77,1.21-1.77c.3-.44,7.57-10.87,20.24-10.87,7.3,0,14.75,3.48,22.15,10.35l2.48,2.29-2.49,2.29c-7.39,6.86-14.84,10.34-22.12,10.34Z"/><path class="cls-1" d="M178.29,219.33l-1.43,1.32c-7.14,6.62-14.29,10-21.23,10h0c-12,0-18.86-9.87-19.15-10.29l-.7-1,.7-1c.29-.42,7.18-10.3,19.15-10.3,7,0,14.11,3.37,21.25,10Z"/><path class="cls-1" d="M236.62,83.79c-11.27-.42-19.56-3.85-24.64-10.21-7-8.82-5-19.68-5-20.14l.4-2.1L209.5,51a24.39,24.39,0,0,1,4.11-.31c7.56,0,25.24,2.91,26.25,29.92l.12,3.36Z"/><path class="cls-1" d="M238.61,82.55l-1.94-.08c-10.87-.41-18.83-3.68-23.66-9.71-6.61-8.3-4.77-18.64-4.69-19.07l.23-1.21,1.2-.23a23.32,23.32,0,0,1,3.86-.29c7.17,0,24,2.79,24.92,28.65Z"/><path class="cls-1" d="M287.32,64.57c-4.4-10.38-4.8-19.35-1.2-26.65,4.77-9.67,14.95-12.72,16.09-13l2.1-.53,1.25,1.72c.06.09,6.7,9.31,4.05,20.35-1.89,7.9-7.94,14.52-18,19.69l-3,1.54Z"/><path class="cls-1" d="M308.33,46.12C306.52,53.63,300.69,60,291,64.94l-1.73.89-.75-1.78c-4.25-10-4.66-18.61-1.23-25.54C292,29,302.15,26.28,302.58,26.16l1.19-.3.72,1C304.76,27.22,310.8,35.8,308.33,46.12Z"/><path class="cls-1" d="M346.12,365.28a7.93,7.93,0,0,0,6.39-9.22L343,303.8c18.15-32.61,21.82-62.86,22.07-65.1a7.93,7.93,0,0,0-7-8.75c-.3,0-.6,0-.89,0a7.94,7.94,0,0,0-7.88,7c-.07.65-5.75,46.66-38.1,84.48l-63-7.18h0a8.12,8.12,0,0,0-.86,0h0a8.7,8.7,0,0,0-1.36.12l-.13,0a7.45,7.45,0,0,0-1.25.35l-.15.06a7.08,7.08,0,0,0-1.14.56l-.15.09a8.07,8.07,0,0,0-1,.74l-.13.12a8.2,8.2,0,0,0-.86.91l-.1.14a7.74,7.74,0,0,0-.71,1.08l0,.09a7.68,7.68,0,0,0-.83,2.69s0,0,0,.05v0c0,.16,0,.32,0,.48s0,.23,0,.34v.05c0,.11,0,.21,0,.32a3.17,3.17,0,0,0,0,.44c0,.12,0,.24,0,.36s0,.28.06.42.06.27.1.4.05.23.09.35.1.29.15.43.07.19.1.29.14.29.2.43.08.18.13.26.16.27.24.41l.15.25c.08.13.17.24.26.36a2.56,2.56,0,0,0,.2.26,3.73,3.73,0,0,0,.26.3c.08.09.16.19.25.28l.26.24.3.28.26.2.35.26.28.18.37.22.32.16c.12.06.24.13.37.18s.25.1.38.15l.34.12.46.13.3.07c.16,0,.33.06.49.09l.27,0,50.62,5.77A133,133,0,0,1,259.32,359a7.93,7.93,0,1,0,6,14.7,151.86,151.86,0,0,0,65.14-50.46l6.46,35.63A7.92,7.92,0,0,0,346.12,365.28Z"/><path class="cls-1" d="M194.33,356a24.56,24.56,0,0,1-4.11-.31l-2.09-.4-.39-2.1c-.33-2-1.59-11.95,5-20.14,5.09-6.35,13.38-9.78,24.65-10.21l3.36-.12-.13,3.36C219.58,353.07,201.89,356,194.33,356Z"/><path class="cls-1" d="M219.33,324.08l-.07,1.94c-1,25.85-17.76,28.65-24.93,28.65a23,23,0,0,1-3.85-.29l-1.22-.23-.22-1.21c-.08-.45-1.93-10.79,4.7-19.07,4.83-6,12.79-9.31,23.66-9.72Z"/><path class="cls-1" d="M612,356c-7.55,0-25.24-2.92-26.26-29.92l-.12-3.36,3.37.12c11.27.43,19.56,3.86,24.64,10.21,7.06,8.86,5,19.69,5,20.15l-.39,2.09-2.11.4A23.89,23.89,0,0,1,612,356Z"/><path class="cls-1" d="M617.26,352.94l-.23,1.21-1.21.23a22.83,22.83,0,0,1-3.85.29c-7.16,0-24-2.79-24.93-28.65l-.08-1.94,1.95.07c10.87.41,18.83,3.68,23.66,9.72C619.19,342.16,617.35,352.5,617.26,352.94Z"/><path class="cls-1" d="M559,313.93a7.82,7.82,0,0,0-2.83.53l-61.06,7c-32.34-37.82-38-83.83-38.1-84.48a7.92,7.92,0,0,0-7.86-7,6.64,6.64,0,0,0-.89,0,7.92,7.92,0,0,0-7,8.75c.25,2.24,3.91,32.49,22.07,65.09l-9.48,52.27a7.93,7.93,0,0,0,15.61,2.83l6.46-35.63A151.9,151.9,0,0,0,541,373.72a7.93,7.93,0,0,0,6-14.7,133.15,133.15,0,0,1-37.76-23.25L559.85,330a7.93,7.93,0,0,0,7-8s0-.07,0-.1A7.94,7.94,0,0,0,559,313.93Z"/><path class="cls-2" d="M.18,472.88a2.07,2.07,0,0,1,.49-1.39,1.85,1.85,0,0,1,1.48-.58H16.79a3.07,3.07,0,0,1,1.3.32,2.68,2.68,0,0,1,1.16,1.07q5.68,9.18,11.29,18.09t11.33,18.09V472.61a2.19,2.19,0,0,1,.71-1.25,1.91,1.91,0,0,1,1.26-.45H56.6a2.36,2.36,0,0,1,1.57.52,1.79,1.79,0,0,1,.62,1.45v62.78a1.59,1.59,0,0,1-.53,1.32,2.31,2.31,0,0,1-1.48.43H42.49a1.49,1.49,0,0,1-1-.41,7,7,0,0,1-.94-1.07L28.75,516.45Q22.93,506.82,16.93,497v38.47a2.1,2.1,0,0,1-.45,1.47,2.12,2.12,0,0,1-1.61.5H2.15a1.85,1.85,0,0,1-1.5-.56,2.09,2.09,0,0,1-.47-1.37Z"/><path class="cls-2" d="M92.42,472.66a1.37,1.37,0,0,1,.29-.58,3.43,3.43,0,0,1,.61-.59,2.83,2.83,0,0,1,.76-.42,2,2,0,0,1,.76-.16H106.3a1.92,1.92,0,0,1,1.3.47,6.07,6.07,0,0,1,.81.83l1.12,2.55L133,535.39a1.32,1.32,0,0,1-.13,1.46,2.2,2.2,0,0,1-1.7.56H118.35a2.83,2.83,0,0,1-1.59-.38,2.46,2.46,0,0,1-.88-1.28c-.59-1.52-1.18-3-1.74-4.55s-1.14-3-1.7-4.54H88.66c-.57,1.52-1.14,3-1.72,4.54s-1.16,3-1.73,4.55a2.25,2.25,0,0,1-2.28,1.66H69.72a2.17,2.17,0,0,1-1.41-.45,1,1,0,0,1-.2-1.34Zm8.15,19.16q-.85,2.3-1.72,4.93c-.59,1.76-1.16,3.54-1.73,5.33s-1.14,3.56-1.72,5.3-1.16,3.38-1.73,4.91h13.75Z"/><path class="cls-2" d="M129.54,472.88a1.8,1.8,0,0,1,.61-1.43,2.16,2.16,0,0,1,1.5-.54h48.18a2.31,2.31,0,0,1,1.43.49,2,2,0,0,1,.72,1.48V484a2.52,2.52,0,0,1-.56,1.54,1.9,1.9,0,0,1-1.59.74H164.38v49a2.18,2.18,0,0,1-.58,1.46,2,2,0,0,1-1.52.65H149.15a2.06,2.06,0,0,1-1.43-.61,1.92,1.92,0,0,1-.67-1.5v-49h-15.4a2.06,2.06,0,0,1-1.5-.58,2.22,2.22,0,0,1-.61-1.7Z"/><path class="cls-2" d="M209.92,510.89a15.07,15.07,0,0,0,.92,5.62,10.62,10.62,0,0,0,2.42,3.77,9.2,9.2,0,0,0,3.5,2.13,13.12,13.12,0,0,0,4.15.67,11.33,11.33,0,0,0,4.24-.79,9.82,9.82,0,0,0,3.5-2.33,11.17,11.17,0,0,0,2.38-3.83,14.65,14.65,0,0,0,.87-5.24v-38a2,2,0,0,1,.56-1.39,2,2,0,0,1,1.5-.58H247a2.12,2.12,0,0,1,1.61.61,1.89,1.89,0,0,1,.58,1.36v37.75a33.29,33.29,0,0,1-2.3,13.16,22.55,22.55,0,0,1-6.21,8.58,23.73,23.73,0,0,1-9,4.66,40.46,40.46,0,0,1-10.77,1.41A39.48,39.48,0,0,1,210.14,537a23.77,23.77,0,0,1-9-4.75,23.06,23.06,0,0,1-6.21-8.59,32.78,32.78,0,0,1-2.3-13V472.88a2,2,0,0,1,.51-1.36,1.59,1.59,0,0,1,1.27-.61h13.4a2.38,2.38,0,0,1,1.41.56,1.73,1.73,0,0,1,.74,1.41Z"/><path class="cls-2" d="M262.31,473a2.17,2.17,0,0,1,.49-1.5,1.88,1.88,0,0,1,1.48-.56H293.2a21.76,21.76,0,0,1,8.65,1.73,22.46,22.46,0,0,1,7,4.68,21.82,21.82,0,0,1,4.72,6.91,21,21,0,0,1,1.72,8.44,20.08,20.08,0,0,1-.82,5.8,21.79,21.79,0,0,1-5.83,9.5,22.87,22.87,0,0,1-4.45,3.33L315.73,533c.21.42.47.91.8,1.48a3.05,3.05,0,0,1,.49,1.48,1.32,1.32,0,0,1-.47,1.1,2,2,0,0,1-1.27.38H299.92a2.25,2.25,0,0,1-1.37-.45,2,2,0,0,1-.78-1.21l-10.88-20.46h-7.25v20.19c0,1.29-.69,1.93-2.06,1.93h-13.3a2.13,2.13,0,0,1-1.44-.47,1.88,1.88,0,0,1-.53-1.46Zm35.06,19.88a7.7,7.7,0,0,0-.5-2.68,8.7,8.7,0,0,0-1.38-2.47,8.44,8.44,0,0,0-2.15-1.88,7.5,7.5,0,0,0-2.78-1l-2.35-.16c-.73,0-1.53-.07-2.39-.07h-6.18v16.44h8.23c.54,0,1,0,1.44-.05s.88-.07,1.39-.13a7.16,7.16,0,0,0,2.82-.92,7.3,7.3,0,0,0,2.1-1.84,8.05,8.05,0,0,0,1.3-2.46A8.87,8.87,0,0,0,297.37,492.85Z"/><path class="cls-2" d="M344.25,472.66a1.37,1.37,0,0,1,.29-.58,3.43,3.43,0,0,1,.61-.59,2.83,2.83,0,0,1,.76-.42,2,2,0,0,1,.76-.16h11.46a1.92,1.92,0,0,1,1.3.47,6.07,6.07,0,0,1,.81.83l1.12,2.55,23.5,60.63a1.32,1.32,0,0,1-.13,1.46,2.2,2.2,0,0,1-1.7.56H370.18a2.83,2.83,0,0,1-1.59-.38,2.46,2.46,0,0,1-.88-1.28c-.59-1.52-1.18-3-1.74-4.55s-1.14-3-1.7-4.54H340.49c-.57,1.52-1.14,3-1.73,4.54s-1.15,3-1.72,4.55a2.25,2.25,0,0,1-2.28,1.66H321.55a2.17,2.17,0,0,1-1.41-.45,1,1,0,0,1-.2-1.34Zm8.15,19.16q-.86,2.3-1.72,4.93c-.59,1.76-1.16,3.54-1.73,5.33s-1.14,3.56-1.72,5.3-1.16,3.38-1.73,4.91h13.75Z"/><path class="cls-2" d="M392.21,472.84a2,2,0,0,1,.53-1.39,1.91,1.91,0,0,1,1.48-.58h13.26a2.1,2.1,0,0,1,1.38.53,1.94,1.94,0,0,1,.68,1.44v48.72h24.62a2,2,0,0,1,1.39.53,1.91,1.91,0,0,1,.58,1.48v11.78a2.13,2.13,0,0,1-.51,1.38,1.9,1.9,0,0,1-1.46.68h-40a1.74,1.74,0,0,1-2-2Z"/><path class="cls-2" d="M474.82,472.88a2.07,2.07,0,0,1,.49-1.39,1.85,1.85,0,0,1,1.48-.58h14.64a3.07,3.07,0,0,1,1.3.32,2.75,2.75,0,0,1,1.17,1.07q5.69,9.18,11.28,18.09t11.33,18.09V472.61a2.21,2.21,0,0,1,.72-1.25,1.86,1.86,0,0,1,1.25-.45h12.76a2.36,2.36,0,0,1,1.57.52,1.77,1.77,0,0,1,.63,1.45v62.78a1.57,1.57,0,0,1-.54,1.32,2.29,2.29,0,0,1-1.48.43H517.14a1.48,1.48,0,0,1-1-.41,6.5,6.5,0,0,1-.94-1.07l-11.78-19.48q-5.82-9.63-11.82-19.48v38.47a1.72,1.72,0,0,1-2.06,2H476.79a1.85,1.85,0,0,1-1.5-.56,2.09,2.09,0,0,1-.47-1.37Z"/><path class="cls-2" d="M548,473a2.09,2.09,0,0,1,.52-1.5,1.87,1.87,0,0,1,1.45-.56h44.42a2,2,0,0,1,1.52.58,2.21,2.21,0,0,1,.54,1.56v11.08a2.33,2.33,0,0,1-.54,1.45,1.85,1.85,0,0,1-1.56.69h-29v11.11h22.39a2.33,2.33,0,0,1,1.41.4,1.54,1.54,0,0,1,.56,1.34v9.67a1.83,1.83,0,0,1-.49,1.21,1.78,1.78,0,0,1-1.44.58H565.36v11.47h30.09a1.8,1.8,0,0,1,2,2.05v11.25a1.12,1.12,0,0,1-.36.81c-.12.83-.73,1.25-1.84,1.25H550a2.09,2.09,0,0,1-1.43-.47,1.84,1.84,0,0,1-.54-1.46Z"/><path class="cls-2" d="M625.59,510.89a15.07,15.07,0,0,0,.92,5.62,10.62,10.62,0,0,0,2.42,3.77,9.2,9.2,0,0,0,3.5,2.13,13.12,13.12,0,0,0,4.15.67,11.33,11.33,0,0,0,4.24-.79,9.82,9.82,0,0,0,3.5-2.33,11.17,11.17,0,0,0,2.38-3.83,14.65,14.65,0,0,0,.87-5.24v-38a2,2,0,0,1,.56-1.39,2,2,0,0,1,1.5-.58h13.08a2.12,2.12,0,0,1,1.61.61,1.89,1.89,0,0,1,.58,1.36v37.75a33.29,33.29,0,0,1-2.3,13.16,22.55,22.55,0,0,1-6.21,8.58,23.73,23.73,0,0,1-9,4.66,40.46,40.46,0,0,1-10.77,1.41A39.48,39.48,0,0,1,625.81,537a23.77,23.77,0,0,1-9-4.75,23.06,23.06,0,0,1-6.21-8.59,32.78,32.78,0,0,1-2.3-13V472.88a2,2,0,0,1,.51-1.36,1.59,1.59,0,0,1,1.27-.61h13.4a2.38,2.38,0,0,1,1.41.56,1.73,1.73,0,0,1,.74,1.41Z"/><path class="cls-2" d="M678,473a2.17,2.17,0,0,1,.49-1.5,1.88,1.88,0,0,1,1.48-.56h28.92a21.76,21.76,0,0,1,8.65,1.73,22.46,22.46,0,0,1,7,4.68,21.82,21.82,0,0,1,4.72,6.91,21,21,0,0,1,1.72,8.44,20.08,20.08,0,0,1-.82,5.8,21.79,21.79,0,0,1-5.83,9.5,22.87,22.87,0,0,1-4.45,3.33L731.4,533c.21.42.47.91.8,1.48a3.08,3.08,0,0,1,.5,1.48,1.35,1.35,0,0,1-.47,1.1,2,2,0,0,1-1.28.38H715.59a2.25,2.25,0,0,1-1.37-.45,2,2,0,0,1-.78-1.21l-10.88-20.46h-7.25v20.19c0,1.29-.69,1.93-2.06,1.93H680a2.13,2.13,0,0,1-1.44-.47,1.88,1.88,0,0,1-.53-1.46ZM713,492.85a7.92,7.92,0,0,0-.49-2.68,9,9,0,0,0-1.39-2.47,8.44,8.44,0,0,0-2.15-1.88,7.5,7.5,0,0,0-2.78-1l-2.35-.16c-.73,0-1.53-.07-2.39-.07h-6.18v16.44h8.24c.53,0,1,0,1.43-.05s.88-.07,1.39-.13a7.16,7.16,0,0,0,2.82-.92,7.3,7.3,0,0,0,2.1-1.84,8.05,8.05,0,0,0,1.3-2.46A8.87,8.87,0,0,0,713,492.85Z"/><path class="cls-2" d="M737.8,504.23a33.85,33.85,0,0,1,1.21-9.12,34.49,34.49,0,0,1,3.45-8.19,34.84,34.84,0,0,1,5.35-7,33.25,33.25,0,0,1,6.93-5.35,35,35,0,0,1,8.17-3.45,34.35,34.35,0,0,1,18.22,0,34.87,34.87,0,0,1,8.2,3.45,34.13,34.13,0,0,1,12.3,12.31,35.33,35.33,0,0,1,3.45,8.19,34.39,34.39,0,0,1,0,18.23,34.5,34.5,0,0,1-3.45,8.15,33.66,33.66,0,0,1-5.36,6.89,34.63,34.63,0,0,1-6.94,5.35,33.27,33.27,0,0,1-8.2,3.45,34.9,34.9,0,0,1-18.22,0,33.38,33.38,0,0,1-8.17-3.45,34.29,34.29,0,0,1-6.93-5.35,34.69,34.69,0,0,1-5.35-6.89,33.71,33.71,0,0,1-4.66-17.26Zm17.33-.05a19.09,19.09,0,0,0,1.25,6.94,17.35,17.35,0,0,0,3.51,5.62,16.35,16.35,0,0,0,5.35,3.76,16.57,16.57,0,0,0,6.79,1.37,16.75,16.75,0,0,0,6.82-1.37,16.33,16.33,0,0,0,5.37-3.76,17.35,17.35,0,0,0,3.51-5.62,19.83,19.83,0,0,0,0-13.86,17.54,17.54,0,0,0-3.51-5.66A16.4,16.4,0,0,0,772,486.4a16.42,16.42,0,0,0-6.79,1.39,16.64,16.64,0,0,0-5.35,3.81,17.54,17.54,0,0,0-3.51,5.66A19.18,19.18,0,0,0,755.13,504.18Z"/><path class="cls-2" d="M57.82,599.84a32.66,32.66,0,0,1-1.2,8.94,31.92,31.92,0,0,1-3.42,7.91,32.76,32.76,0,0,1-12.14,11.7A34.32,34.32,0,0,1,33,631.61a35.37,35.37,0,0,1-9,1.13H2a2.8,2.8,0,0,1-1.42-.35A1.61,1.61,0,0,1,0,630.88v-62a2.19,2.19,0,0,1,.51-1.51A1.92,1.92,0,0,1,2,566.75h21.9a34.73,34.73,0,0,1,9,1.16A34,34,0,0,1,41,571.19a34.68,34.68,0,0,1,6.86,5.11A31,31,0,0,1,53.18,583a33.14,33.14,0,0,1,3.42,7.95A32.42,32.42,0,0,1,57.82,599.84ZM17.19,582.69v34.15h3.73c.68,0,1.34,0,2-.06l1.95-.16A17.6,17.6,0,0,0,31.09,615a17.39,17.39,0,0,0,5-3.55,16.06,16.06,0,0,0,3.37-5.17,16.85,16.85,0,0,0,1.22-6.49,16.66,16.66,0,0,0-1.39-6.86,16.86,16.86,0,0,0-9.42-9,18.66,18.66,0,0,0-6.86-1.27Z"/><path class="cls-2" d="M79.36,568.84a2.12,2.12,0,0,1,.51-1.49,1.86,1.86,0,0,1,1.44-.56h44.06a2,2,0,0,1,1.51.58,2.16,2.16,0,0,1,.53,1.55v11a2.29,2.29,0,0,1-.53,1.44,1.84,1.84,0,0,1-1.55.69H96.55v11h22.2a2.3,2.3,0,0,1,1.4.4,1.53,1.53,0,0,1,.56,1.33v9.6a1.89,1.89,0,0,1-.49,1.2,1.77,1.77,0,0,1-1.42.57H96.55v11.37h29.84a1.79,1.79,0,0,1,2,2v11.16a1.08,1.08,0,0,1-.36.79c-.11.83-.72,1.24-1.82,1.24H81.31a2.09,2.09,0,0,1-1.42-.46,1.84,1.84,0,0,1-.53-1.45Z"/><path class="cls-2" d="M167.43,631.81a13.57,13.57,0,0,1-.87-1.64c-.25-.56-.5-1.14-.73-1.73L143,568.79a1.29,1.29,0,0,0-.06-.4.84.84,0,0,1-.07-.35c0-.83.55-1.25,1.64-1.25h14.3a2.3,2.3,0,0,1,2.31,1.69l13.55,40.42q1.81-5.07,3.49-10.11t3.28-10.1q1.62-5.07,3.29-10.1t3.48-10.11a2.4,2.4,0,0,1,2.45-1.69h14a2.16,2.16,0,0,1,1.44.38,1.28,1.28,0,0,1,.42,1,1.83,1.83,0,0,1,0,.49v.13l-22.92,59.65c-.15.41-.32.87-.53,1.37a10.18,10.18,0,0,1-.71,1.4,4.74,4.74,0,0,1-.93,1.09,1.82,1.82,0,0,1-1.2.44h-11A1.8,1.8,0,0,1,167.43,631.81Z"/><path class="cls-2" d="M224.49,568.84a2.12,2.12,0,0,1,.51-1.49,1.86,1.86,0,0,1,1.44-.56H270.5a2,2,0,0,1,1.51.58,2.17,2.17,0,0,1,.54,1.55v11a2.31,2.31,0,0,1-.54,1.44,1.83,1.83,0,0,1-1.55.69H241.68v11h22.21a2.29,2.29,0,0,1,1.39.4,1.53,1.53,0,0,1,.56,1.33v9.6a1.84,1.84,0,0,1-.49,1.2,1.77,1.77,0,0,1-1.42.57H241.68v11.37h29.84a1.78,1.78,0,0,1,2,2v11.16a1.1,1.1,0,0,1-.35.79c-.12.83-.73,1.24-1.82,1.24H226.44a2.09,2.09,0,0,1-1.42-.46,1.84,1.84,0,0,1-.53-1.45Z"/><path class="cls-2" d="M292.84,568.7a2,2,0,0,1,.53-1.37,1.9,1.9,0,0,1,1.47-.58H308a2.08,2.08,0,0,1,1.38.53,1.91,1.91,0,0,1,.67,1.42V617h24.42a2,2,0,0,1,1.38.54,1.9,1.9,0,0,1,.58,1.46V630.7a2.15,2.15,0,0,1-.51,1.38,1.93,1.93,0,0,1-1.45.66H294.79a1.72,1.72,0,0,1-2-2Z"/><path class="cls-2" d="M351.68,599.84a33.67,33.67,0,0,1,4.63-17.17,34.28,34.28,0,0,1,5.31-6.9,32.39,32.39,0,0,1,6.86-5.31,34.48,34.48,0,0,1,8.11-3.42,34.07,34.07,0,0,1,18.07,0,34.45,34.45,0,0,1,8.13,3.42A33.79,33.79,0,0,1,415,582.67a35.68,35.68,0,0,1,3.42,8.13,34.07,34.07,0,0,1,0,18.07A35,35,0,0,1,415,617a33.74,33.74,0,0,1-5.31,6.84,35.11,35.11,0,0,1-6.89,5.3,34,34,0,0,1-34.31,0,34.06,34.06,0,0,1-6.86-5.3,34.47,34.47,0,0,1-5.31-6.84,33,33,0,0,1-3.43-8.09A33.64,33.64,0,0,1,351.68,599.84Zm17.19-.05a18.86,18.86,0,0,0,1.24,6.89,17,17,0,0,0,3.48,5.57,16.31,16.31,0,0,0,5.3,3.73,17.58,17.58,0,0,0,13.51,0,16.19,16.19,0,0,0,5.32-3.73,17,17,0,0,0,3.48-5.57,19.68,19.68,0,0,0,0-13.75,17.28,17.28,0,0,0-3.48-5.62,16.57,16.57,0,0,0-24.13,0,17.28,17.28,0,0,0-3.48,5.62A18.85,18.85,0,0,0,368.87,599.79Z"/><path class="cls-2" d="M439.57,568.84a2.16,2.16,0,0,1,.49-1.49,1.84,1.84,0,0,1,1.47-.56H469.9a19.42,19.42,0,0,1,5.78.85,19.69,19.69,0,0,1,5,2.33,20.58,20.58,0,0,1,4.09,3.55,23,23,0,0,1,3.08,4.47,22.14,22.14,0,0,1,1.93,5,21.49,21.49,0,0,1,.67,5.35,22,22,0,0,1-1.44,7.81,21.3,21.3,0,0,1-4.11,6.8,21,21,0,0,1-6.4,4.82,18.78,18.78,0,0,1-8.26,1.89H456.76v21.13c0,1.28-.68,1.91-2,1.91H441.53a2.1,2.1,0,0,1-1.43-.46,1.84,1.84,0,0,1-.53-1.45ZM473,588.29a8.06,8.06,0,0,0-.46-2.67,7.63,7.63,0,0,0-1.36-2.37,7.07,7.07,0,0,0-2.15-1.71,6,6,0,0,0-2.87-.67h-9.41v14.84h9.41a6.36,6.36,0,0,0,2.89-.65,6.62,6.62,0,0,0,2.15-1.66,7.5,7.5,0,0,0,1.34-2.36A8.27,8.27,0,0,0,473,588.29Z"/><path class="cls-2" d="M513.69,568.75a2.43,2.43,0,0,1,.62-1.38,2,2,0,0,1,1.51-.58h15.37a2.08,2.08,0,0,1,2.13,1.69l12.08,40.33,12.17-40.33a2.28,2.28,0,0,1,2.26-1.69H575a2.18,2.18,0,0,1,1.45.56,2.12,2.12,0,0,1,.73,1.4q1.54,15.63,3.17,31t3.18,31V631c0,1.16-.65,1.73-2,1.73H569a1.86,1.86,0,0,1-2.14-2L563,596.46,553,631a2.55,2.55,0,0,1-.65,1.07,1.54,1.54,0,0,1-1.08.62H539.63a1.69,1.69,0,0,1-1.14-.6,1.89,1.89,0,0,1-.64-1.09l-10-34.46L524,630.79c-.06,1.3-.78,2-2.17,2H509.25a1.71,1.71,0,0,1-1.91-2Z"/><path class="cls-2" d="M605.27,568.84a2.12,2.12,0,0,1,.5-1.49,1.86,1.86,0,0,1,1.44-.56h44.06a2,2,0,0,1,1.51.58,2.17,2.17,0,0,1,.54,1.55v11a2.31,2.31,0,0,1-.54,1.44,1.83,1.83,0,0,1-1.55.69H622.45v11h22.21a2.32,2.32,0,0,1,1.4.4,1.53,1.53,0,0,1,.55,1.33v9.6a1.84,1.84,0,0,1-.49,1.2,1.76,1.76,0,0,1-1.42.57H622.45v11.37H652.3a1.78,1.78,0,0,1,2,2v11.16a1.07,1.07,0,0,1-.35.79c-.12.83-.73,1.24-1.82,1.24H607.21a2,2,0,0,1-1.41-.46,1.8,1.8,0,0,1-.53-1.45Z"/><path class="cls-2" d="M675.34,568.75a2.12,2.12,0,0,1,.49-1.38,1.85,1.85,0,0,1,1.47-.58h14.52a3.06,3.06,0,0,1,1.29.32,2.75,2.75,0,0,1,1.15,1.06q5.64,9.11,11.19,17.94t11.24,17.94V568.48a2.22,2.22,0,0,1,.71-1.24,1.88,1.88,0,0,1,1.24-.45H731.3a2.41,2.41,0,0,1,1.56.52,1.77,1.77,0,0,1,.62,1.44V631a1.56,1.56,0,0,1-.54,1.31,2.29,2.29,0,0,1-1.46.42H717.31a1.48,1.48,0,0,1-1-.4,6.37,6.37,0,0,1-.93-1.06L703.68,612q-5.77-9.56-11.73-19.32v38.15a1.69,1.69,0,0,1-2,2H677.3a1.84,1.84,0,0,1-1.49-.55,2,2,0,0,1-.47-1.36Z"/><path class="cls-2" d="M754.31,568.74a1.8,1.8,0,0,1,.59-1.41,2.15,2.15,0,0,1,1.49-.54h47.79a2.29,2.29,0,0,1,1.42.49,2,2,0,0,1,.71,1.46v11a2.51,2.51,0,0,1-.56,1.53,1.87,1.87,0,0,1-1.57.73H788.86v48.62a2.14,2.14,0,0,1-.58,1.45,1.92,1.92,0,0,1-1.51.64h-13a2.11,2.11,0,0,1-1.42-.6,1.92,1.92,0,0,1-.66-1.49V582H756.39a2.05,2.05,0,0,1-1.49-.58,2.24,2.24,0,0,1-.59-1.68Z"/></g></g></svg>